<svg xmlns="http://www.w3.org/2000/svg" xmlns:xlink="http://www.w3.org/1999/xlink"><symbol id="loupe" viewBox="0 0 512 512">
<g transform="translate(1 1)">
	<g>
		<path d="M504.508,474.582l-163.48-163.48c26.405-32.888,42.214-74.647,42.214-120.102c0-106.033-85.967-192-192-192
			s-192,85.967-192,192s85.967,192,192,192c45.207,0,86.759-15.635,119.563-41.78l163.532,163.532c8.331,8.331,21.839,8.331,30.17,0
			C512.84,496.42,512.84,482.913,504.508,474.582z M41.91,191c0-82.469,66.865-149.333,149.333-149.333S340.577,108.531,340.577,191
			c0,41.354-16.816,78.783-43.98,105.826c-0.002,0.002-0.005,0.004-0.007,0.007c-0.001,0.001-0.003,0.003-0.004,0.005
			c-27.005,26.879-64.234,43.496-105.342,43.496C108.775,340.333,41.91,273.469,41.91,191z"/>
	</g>
</g>
<g>
</g>
<g>
</g>
<g>
</g>
<g>
</g>
<g>
</g>
<g>
</g>
<g>
</g>
<g>
</g>
<g>
</g>
<g>
</g>
<g>
</g>
<g>
</g>
<g>
</g>
<g>
</g>
<g>
</g>
</symbol><symbol id="shopping-cart" viewBox="0 0 512 512">
<g>
	<g>
		<g>
			<path d="M503.467,102.404h-358.4V85.333c0-25.778-19.141-47.15-43.958-50.679C97.736,24.453,88.116,17.067,76.8,17.067H25.6
				c-14.114,0-25.6,11.486-25.6,25.6s11.486,25.6,25.6,25.6h51.2c10.866,0,20.167-6.81,23.876-16.383
				C116.248,55.047,128,68.84,128,85.333v17.071h-25.6c-4.719,0-8.533,3.814-8.533,8.533v34.133c0,4.71,3.814,8.533,8.533,8.533
				h10.133l41.251,198.003c0.009,0.042,0.022,0.082,0.031,0.124c0.016,0.07,0.024,0.139,0.041,0.209l17.067,68.267
				c0.956,3.797,4.361,6.46,8.277,6.46h34.157c-5.369,7.136-8.557,16.002-8.557,25.6c0,23.526,19.14,42.667,42.667,42.667
				c23.526,0,42.667-19.14,42.667-42.667c0-9.598-3.187-18.464-8.557-25.6h93.913c-5.369,7.136-8.557,16.002-8.557,25.6
				c0,23.526,19.14,42.667,42.667,42.667c23.526,0,42.667-19.14,42.667-42.667c0-9.598-3.187-18.464-8.557-25.6h25.623
				c4.719,0,8.533-3.823,8.533-8.533c0-4.71-3.814-8.533-8.533-8.533H185.865l-12.802-51.2h279.208c4.173,0,7.731-3.021,8.414-7.125
				l32.945-197.67h9.837c4.719,0,8.533-3.823,8.533-8.533v-34.133C512,106.219,508.186,102.404,503.467,102.404z M76.8,51.2H25.6
				c-4.71,0-8.533-3.831-8.533-8.533c0-4.702,3.823-8.533,8.533-8.533h51.2c4.71,0,8.533,3.831,8.533,8.533
				C85.333,47.369,81.51,51.2,76.8,51.2z M273.067,452.267c0,14.114-11.486,25.6-25.6,25.6s-25.6-11.486-25.6-25.6
				s11.486-25.6,25.6-25.6S273.067,438.153,273.067,452.267z M435.2,452.267c0,14.114-11.486,25.6-25.6,25.6s-25.6-11.486-25.6-25.6
				s11.486-25.6,25.6-25.6S435.2,438.153,435.2,452.267z M445.043,341.333H169.075l-39.116-187.729h346.366L445.043,341.333z
				 M494.933,136.538h-8.451c-0.026,0-0.052-0.004-0.078-0.004H119.471c-0.026,0-0.05,0.004-0.076,0.004h-8.462v-17.067h384V136.538
				z"/>
			<path d="M204.8,298.667c4.719,0,8.533-3.823,8.533-8.533V204.8c0-4.71-3.814-8.533-8.533-8.533s-8.533,3.823-8.533,8.533v85.333
				C196.267,294.844,200.081,298.667,204.8,298.667z"/>
			<path d="M256,298.667c4.719,0,8.533-3.823,8.533-8.533V204.8c0-4.71-3.814-8.533-8.533-8.533s-8.533,3.823-8.533,8.533v85.333
				C247.467,294.844,251.281,298.667,256,298.667z"/>
			<path d="M307.2,298.667c4.719,0,8.533-3.823,8.533-8.533V204.8c0-4.71-3.814-8.533-8.533-8.533s-8.533,3.823-8.533,8.533v85.333
				C298.667,294.844,302.481,298.667,307.2,298.667z"/>
			<path d="M358.4,298.667c4.719,0,8.533-3.823,8.533-8.533V204.8c0-4.71-3.814-8.533-8.533-8.533s-8.533,3.823-8.533,8.533v85.333
				C349.867,294.844,353.681,298.667,358.4,298.667z"/>
			<path d="M409.6,298.667c4.719,0,8.533-3.823,8.533-8.533V204.8c0-4.71-3.814-8.533-8.533-8.533s-8.533,3.823-8.533,8.533v85.333
				C401.067,294.844,404.881,298.667,409.6,298.667z"/>
		</g>
	</g>
</g>
<g>
</g>
<g>
</g>
<g>
</g>
<g>
</g>
<g>
</g>
<g>
</g>
<g>
</g>
<g>
</g>
<g>
</g>
<g>
</g>
<g>
</g>
<g>
</g>
<g>
</g>
<g>
</g>
<g>
</g>
</symbol></svg>